<mxfile host="65bd71144e">
    <diagram id="PT42FjA6LvFZ_7Tnrnf3" name="Page-1">
        <mxGraphModel dx="1160" dy="1729" grid="1" gridSize="10" guides="1" tooltips="1" connect="1" arrows="1" fold="1" page="1" pageScale="1" pageWidth="850" pageHeight="1100" math="0" shadow="0">
            <root>
                <mxCell id="0"/>
                <mxCell id="1" parent="0"/>
                <mxCell id="2" value="DMA" style="rounded=0;whiteSpace=wrap;html=1;fillColor=#a20025;strokeColor=#6F0000;fontColor=#ffffff;shadow=1;fontSize=18;" vertex="1" parent="1">
                    <mxGeometry x="110" y="91.87" width="100" height="80" as="geometry"/>
                </mxCell>
                <mxCell id="3" value="" style="rounded=0;whiteSpace=wrap;html=1;fillColor=#a20025;strokeColor=#6F0000;fontColor=#ffffff;shadow=1;" vertex="1" parent="1">
                    <mxGeometry x="210" y="91.87" width="30" height="80" as="geometry"/>
                </mxCell>
                <mxCell id="4" value="Normal Memory" style="rounded=0;whiteSpace=wrap;html=1;fillColor=#a20025;strokeColor=#6F0000;fontColor=#ffffff;shadow=1;fontSize=18;" vertex="1" parent="1">
                    <mxGeometry x="240" y="91.87" width="310" height="80" as="geometry"/>
                </mxCell>
                <mxCell id="5" value="" style="rounded=0;whiteSpace=wrap;html=1;fillColor=#1ba1e2;strokeColor=#006EAF;fontColor=#ffffff;shadow=1;" vertex="1" parent="1">
                    <mxGeometry x="550" y="91.87" width="150" height="80" as="geometry"/>
                </mxCell>
                <mxCell id="6" value="DMA" style="rounded=0;whiteSpace=wrap;html=1;fillColor=#a20025;strokeColor=#6F0000;fontColor=#ffffff;shadow=1;fontSize=18;" vertex="1" parent="1">
                    <mxGeometry x="380" y="261.87" width="100" height="80" as="geometry"/>
                </mxCell>
                <mxCell id="7" value="" style="rounded=0;whiteSpace=wrap;html=1;fillColor=#a20025;strokeColor=#6F0000;fontColor=#ffffff;shadow=1;" vertex="1" parent="1">
                    <mxGeometry x="480" y="261.87" width="30" height="80" as="geometry"/>
                </mxCell>
                <mxCell id="8" value="" style="rounded=0;whiteSpace=wrap;html=1;fillColor=#a20025;strokeColor=#6F0000;fontColor=#ffffff;shadow=1;" vertex="1" parent="1">
                    <mxGeometry x="510" y="261.87" width="310" height="80" as="geometry"/>
                </mxCell>
                <mxCell id="10" value="On&lt;br&gt;Demand&lt;br&gt;Mapping" style="rounded=0;whiteSpace=wrap;html=1;fillColor=#a20025;strokeColor=#6F0000;fontColor=#ffffff;shadow=1;" vertex="1" parent="1">
                    <mxGeometry x="820" y="261.87" width="50" height="80" as="geometry"/>
                </mxCell>
                <mxCell id="11" value="" style="endArrow=none;html=1;entryX=1;entryY=1;entryDx=0;entryDy=0;exitX=1;exitY=0;exitDx=0;exitDy=0;shadow=1;" edge="1" parent="1" source="8" target="4">
                    <mxGeometry width="50" height="50" relative="1" as="geometry">
                        <mxPoint x="420" y="571.87" as="sourcePoint"/>
                        <mxPoint x="470" y="521.87" as="targetPoint"/>
                    </mxGeometry>
                </mxCell>
                <mxCell id="12" value="" style="endArrow=none;html=1;entryX=0;entryY=1;entryDx=0;entryDy=0;exitX=0;exitY=0;exitDx=0;exitDy=0;shadow=1;" edge="1" parent="1" source="8" target="4">
                    <mxGeometry width="50" height="50" relative="1" as="geometry">
                        <mxPoint x="830" y="271.87" as="sourcePoint"/>
                        <mxPoint x="560" y="181.87" as="targetPoint"/>
                    </mxGeometry>
                </mxCell>
                <mxCell id="13" value="" style="endArrow=none;html=1;exitX=0;exitY=0;exitDx=0;exitDy=0;entryX=0;entryY=1;entryDx=0;entryDy=0;shadow=1;" edge="1" parent="1" source="7" target="3">
                    <mxGeometry width="50" height="50" relative="1" as="geometry">
                        <mxPoint x="520.0000000000002" y="271.87" as="sourcePoint"/>
                        <mxPoint x="220" y="231.87" as="targetPoint"/>
                    </mxGeometry>
                </mxCell>
                <mxCell id="14" value="" style="endArrow=none;html=1;exitX=0;exitY=0;exitDx=0;exitDy=0;entryX=0;entryY=1;entryDx=0;entryDy=0;shadow=1;" edge="1" parent="1" source="6" target="2">
                    <mxGeometry width="50" height="50" relative="1" as="geometry">
                        <mxPoint x="490" y="271.87" as="sourcePoint"/>
                        <mxPoint x="220" y="181.87" as="targetPoint"/>
                    </mxGeometry>
                </mxCell>
                <mxCell id="15" value="" style="shape=curlyBracket;whiteSpace=wrap;html=1;rounded=1;flipH=1;rotation=90;shadow=1;" vertex="1" parent="1">
                    <mxGeometry x="615" y="169.99" width="20" height="490" as="geometry"/>
                </mxCell>
                <mxCell id="16" value="" style="rounded=0;whiteSpace=wrap;html=1;fillColor=#1ba1e2;strokeColor=#006EAF;fontColor=#ffffff;shadow=1;" vertex="1" parent="1">
                    <mxGeometry x="760" y="91.87" width="110" height="80" as="geometry"/>
                </mxCell>
                <mxCell id="17" value="..." style="text;html=1;strokeColor=none;fillColor=none;align=center;verticalAlign=bottom;whiteSpace=wrap;rounded=0;fontSize=44;fontStyle=1;shadow=1;" vertex="1" parent="1">
                    <mxGeometry x="710" y="126.87" width="40" height="20" as="geometry"/>
                </mxCell>
                <mxCell id="19" value="" style="rounded=0;whiteSpace=wrap;html=1;fillColor=#1ba1e2;strokeColor=#006EAF;fontColor=#ffffff;shadow=1;" vertex="1" parent="1">
                    <mxGeometry x="110" y="261.87" width="100" height="80" as="geometry"/>
                </mxCell>
                <mxCell id="20" value="" style="rounded=0;whiteSpace=wrap;html=1;fillColor=#1ba1e2;strokeColor=#006EAF;fontColor=#ffffff;shadow=1;" vertex="1" parent="1">
                    <mxGeometry x="270" y="261.87" width="110" height="80" as="geometry"/>
                </mxCell>
                <mxCell id="21" value="..." style="text;html=1;strokeColor=none;fillColor=none;align=center;verticalAlign=bottom;whiteSpace=wrap;rounded=0;fontSize=44;fontStyle=1;shadow=1;" vertex="1" parent="1">
                    <mxGeometry x="220" y="296.87" width="40" height="20" as="geometry"/>
                </mxCell>
                <mxCell id="23" value="nth kernel page&amp;nbsp;âŸ¼ nth frame&amp;nbsp;&lt;br&gt;&lt;br&gt;1:1 mapping" style="text;html=1;strokeColor=none;fillColor=none;align=center;verticalAlign=middle;whiteSpace=wrap;rounded=0;fontSize=15;shadow=1;" vertex="1" parent="1">
                    <mxGeometry x="385" y="191.87" width="230" height="50" as="geometry"/>
                </mxCell>
                <mxCell id="24" value="Physical&lt;br style=&quot;font-size: 20px;&quot;&gt;Memory" style="text;html=1;strokeColor=none;fillColor=none;align=center;verticalAlign=middle;whiteSpace=wrap;rounded=0;fontSize=20;shadow=1;" vertex="1" parent="1">
                    <mxGeometry x="10" y="116.87" width="80" height="30" as="geometry"/>
                </mxCell>
                <mxCell id="25" value="Virtual&lt;br&gt;Memory" style="text;html=1;strokeColor=none;fillColor=none;align=center;verticalAlign=middle;whiteSpace=wrap;rounded=0;fontSize=20;shadow=1;" vertex="1" parent="1">
                    <mxGeometry x="10" y="286.87" width="80" height="30" as="geometry"/>
                </mxCell>
                <mxCell id="26" value="" style="shape=curlyBracket;whiteSpace=wrap;html=1;rounded=1;flipH=1;rotation=90;shadow=1;" vertex="1" parent="1">
                    <mxGeometry x="234.38" y="271.87" width="20" height="236.25" as="geometry"/>
                </mxCell>
                <mxCell id="27" value="User Process Address Space" style="text;html=1;strokeColor=none;fillColor=none;align=center;verticalAlign=middle;whiteSpace=wrap;rounded=0;fontSize=20;shadow=1;" vertex="1" parent="1">
                    <mxGeometry x="140" y="399.99" width="200" height="51.88" as="geometry"/>
                </mxCell>
                <mxCell id="28" value="Kernel Address Space" style="text;html=1;strokeColor=none;fillColor=none;align=center;verticalAlign=middle;whiteSpace=wrap;rounded=0;fontSize=20;shadow=1;" vertex="1" parent="1">
                    <mxGeometry x="517.5" y="429.99" width="215" height="30" as="geometry"/>
                </mxCell>
                <mxCell id="34" value="" style="group;shadow=1;" vertex="1" connectable="0" parent="1">
                    <mxGeometry x="380" y="371.87" width="440" height="20" as="geometry"/>
                </mxCell>
                <mxCell id="30" value="896 MB" style="endArrow=none;html=1;fontSize=20;shadow=1;" edge="1" parent="34">
                    <mxGeometry width="50" height="50" relative="1" as="geometry">
                        <mxPoint y="10" as="sourcePoint"/>
                        <mxPoint x="440" y="10" as="targetPoint"/>
                    </mxGeometry>
                </mxCell>
                <mxCell id="31" value="" style="endArrow=none;html=1;fontSize=20;shadow=1;" edge="1" parent="34">
                    <mxGeometry width="50" height="50" relative="1" as="geometry">
                        <mxPoint y="20" as="sourcePoint"/>
                        <mxPoint as="targetPoint"/>
                    </mxGeometry>
                </mxCell>
                <mxCell id="32" value="" style="endArrow=none;html=1;fontSize=20;shadow=1;" edge="1" parent="34">
                    <mxGeometry width="50" height="50" relative="1" as="geometry">
                        <mxPoint x="440" y="20" as="sourcePoint"/>
                        <mxPoint x="440" as="targetPoint"/>
                    </mxGeometry>
                </mxCell>
                <mxCell id="35" value="0" style="text;html=1;strokeColor=none;fillColor=none;align=center;verticalAlign=middle;whiteSpace=wrap;rounded=0;fontSize=20;shadow=1;" vertex="1" parent="1">
                    <mxGeometry x="100" y="341.87" width="30" height="30" as="geometry"/>
                </mxCell>
                <mxCell id="36" value="3GB" style="text;html=1;strokeColor=none;fillColor=none;align=center;verticalAlign=middle;whiteSpace=wrap;rounded=0;fontSize=20;shadow=1;" vertex="1" parent="1">
                    <mxGeometry x="370" y="341.87" width="30" height="30" as="geometry"/>
                </mxCell>
                <mxCell id="37" value="4GB" style="text;html=1;strokeColor=none;fillColor=none;align=center;verticalAlign=middle;whiteSpace=wrap;rounded=0;fontSize=20;shadow=1;" vertex="1" parent="1">
                    <mxGeometry x="850" y="341.87" width="30" height="30" as="geometry"/>
                </mxCell>
                <mxCell id="38" value="0" style="text;html=1;strokeColor=none;fillColor=none;align=center;verticalAlign=middle;whiteSpace=wrap;rounded=0;fontSize=20;shadow=1;" vertex="1" parent="1">
                    <mxGeometry x="90" y="61.87" width="30" height="30" as="geometry"/>
                </mxCell>
                <mxCell id="39" value="896 MB" style="text;html=1;strokeColor=none;fillColor=none;align=center;verticalAlign=middle;whiteSpace=wrap;rounded=0;fontSize=20;shadow=1;" vertex="1" parent="1">
                    <mxGeometry x="510" y="61.87" width="80" height="30" as="geometry"/>
                </mxCell>
                <mxCell id="40" value="" style="shape=curlyBracket;whiteSpace=wrap;html=1;rounded=1;flipH=1;rotation=-90;shadow=1;" vertex="1" parent="1">
                    <mxGeometry x="701.88" y="-110" width="20" height="320" as="geometry"/>
                </mxCell>
                <mxCell id="41" value="High Memory, contains user processes" style="text;html=1;strokeColor=none;fillColor=none;align=center;verticalAlign=middle;whiteSpace=wrap;rounded=0;fontSize=20;shadow=1;" vertex="1" parent="1">
                    <mxGeometry x="532.8199999999999" y="11.869999999999997" width="358.12" height="30" as="geometry"/>
                </mxCell>
                <mxCell id="42" value="Antiquated 32 Bit Machine:" style="text;html=1;strokeColor=none;fillColor=none;align=center;verticalAlign=middle;whiteSpace=wrap;rounded=0;fontSize=20;shadow=1;" vertex="1" parent="1">
                    <mxGeometry x="10" y="11.87" width="250" height="30" as="geometry"/>
                </mxCell>
                <mxCell id="43" value="" style="group;shadow=1;" vertex="1" connectable="0" parent="1">
                    <mxGeometry x="820" y="230" width="50" height="20" as="geometry"/>
                </mxCell>
                <mxCell id="44" value="128 MB" style="endArrow=none;html=1;fontSize=20;shadow=1;" edge="1" parent="43">
                    <mxGeometry y="20" width="50" height="50" relative="1" as="geometry">
                        <mxPoint y="9.8" as="sourcePoint"/>
                        <mxPoint x="50" y="9.8" as="targetPoint"/>
                        <mxPoint as="offset"/>
                    </mxGeometry>
                </mxCell>
                <mxCell id="45" value="" style="endArrow=none;html=1;fontSize=20;shadow=1;" edge="1" parent="43">
                    <mxGeometry width="50" height="50" relative="1" as="geometry">
                        <mxPoint y="20" as="sourcePoint"/>
                        <mxPoint as="targetPoint"/>
                    </mxGeometry>
                </mxCell>
                <mxCell id="46" value="" style="endArrow=none;html=1;fontSize=20;shadow=1;" edge="1" parent="43">
                    <mxGeometry width="50" height="50" relative="1" as="geometry">
                        <mxPoint x="50" y="20" as="sourcePoint"/>
                        <mxPoint x="50" as="targetPoint"/>
                    </mxGeometry>
                </mxCell>
            </root>
        </mxGraphModel>
    </diagram>
</mxfile>